<?xml version="1.0" encoding="UTF-8"?>
<svg id="Capa_2" data-name="Capa 2" xmlns="http://www.w3.org/2000/svg" viewBox="0 0 19.25 24.27">
  <g id="Capa_1-2" data-name="Capa 1">
    <g>
      <path d="M9.63,18.4c-5.32,0-9.63,1.31-9.63,2.93s4.31,2.93,9.63,2.93,9.63-1.31,9.63-2.93-4.31-2.93-9.63-2.93ZM14.44,22.17c-1.28.39-2.99.61-4.81.61s-3.53-.21-4.81-.61c-1.31-.4-1.78-.87-1.78-1.15s.47-.75,1.78-1.15c1.28-.39,2.99-.6,4.81-.6h0c1.82,0,3.53.21,4.81.6,1.31.4,1.78.87,1.78,1.15s-.47.75-1.78,1.15Z" style="stroke-width: 0px;"/>
      <path d="M9.66,0C5.51,0,2.15,3.36,2.15,7.5c0,.71.1,1.4.29,2.05.11.4.24.8.44,1.16,1.54,2.82,6.78,10.9,6.78,10.9,0,0,5.24-8.08,6.78-10.9.2-.36.32-.76.44-1.16.19-.65.29-1.34.29-2.05,0-4.14-3.36-7.5-7.5-7.5ZM9.66,10.81c-1.05,0-1.98-.49-2.59-1.25-.45-.56-.72-1.28-.72-2.05,0-1.82,1.48-3.3,3.3-3.3s3.3,1.48,3.3,3.3c0,.78-.27,1.49-.72,2.05-.61.76-1.54,1.25-2.59,1.25Z" style="stroke-width: 0px;"/>
    </g>
  </g>
</svg>