<?xml version="1.0" encoding="UTF-8"?>
<svg id="Capa_2" data-name="Capa 2" xmlns="http://www.w3.org/2000/svg" viewBox="0 0 19.6 24.71">
  <g id="Capa_1-2" data-name="Capa 1">
    <g>
      <path d="M9.8,18.74c-5.41,0-9.8,1.34-9.8,2.98s4.39,2.98,9.8,2.98,9.8-1.34,9.8-2.98-4.39-2.98-9.8-2.98ZM14.7,22.58c-1.3.4-3.05.62-4.9.62s-3.6-.22-4.9-.62c-1.34-.41-1.81-.89-1.81-1.17s.47-.76,1.81-1.17c1.3-.4,3.05-.62,4.9-.62h0c1.86,0,3.6.22,4.9.62,1.34.41,1.81.89,1.81,1.17s-.47.76-1.81,1.17Z" style="fill: currentColor; stroke-width: 0px;"/>
      <path d="M9.83,0C5.61,0,2.19,3.42,2.19,7.64c0,.72.1,1.43.29,2.09.12.41.24.82.44,1.18,1.57,2.87,6.9,11.1,6.9,11.1,0,0,5.34-8.23,6.9-11.1.2-.37.33-.77.44-1.18.19-.66.29-1.36.29-2.09,0-4.22-3.42-7.64-7.64-7.64ZM9.83,11c-1.07,0-2.02-.5-2.63-1.27-.46-.57-.73-1.3-.73-2.09,0-1.85,1.51-3.36,3.36-3.36s3.36,1.51,3.36,3.36c0,.79-.27,1.52-.73,2.09-.62.78-1.57,1.27-2.63,1.27Z" style="fill: currentColor; stroke-width: 0px;"/>
    </g>
  </g>
</svg>