<?xml version="1.0" encoding="UTF-8"?>
<svg id="Capa_2" data-name="Capa 2" xmlns="http://www.w3.org/2000/svg" viewBox="0 0 1865.14 223.1" >
  <g id="Capa_1-2" data-name="Capa 1">
    <g style="opacity: .6;">
      <path d="M125.18,215.38H51.79c-7.09,0-13.78-1.37-20.07-4.12-6.29-2.74-11.78-6.46-16.46-11.15-4.69-4.69-8.4-10.23-11.15-16.64-2.74-6.4-4.12-13.14-4.12-20.23V8.92h28.12v154.33c0,6.63,2.28,12.29,6.86,16.98,4.57,4.69,10.17,7.03,16.81,7.03h73.39v28.12Z" style="fill: #efeceb; stroke-width: 0px;"/>
      <path d="M288.77,215.38h-29.84v-29.5c-6.17,8.69-14.29,15.78-24.35,21.26-10.06,5.49-21.15,8.23-33.27,8.23s-23.49-2.28-34.13-6.86c-10.63-4.57-19.95-10.86-27.95-18.86-8.01-8-14.29-17.32-18.86-27.95-4.58-10.63-6.86-22-6.86-34.13s2.28-23.49,6.86-34.13c4.57-10.63,10.85-19.89,18.86-27.78,8-7.89,17.32-14.11,27.95-18.69,10.63-4.57,22-6.86,34.13-6.86s23.09,2.23,33.61,6.69c10.52,4.46,19.72,10.52,27.61,18.17,7.89,7.66,14.17,16.69,18.86,27.1,4.68,10.41,7.14,21.55,7.37,33.44v89.86ZM201.32,185.54c8,0,15.49-1.54,22.46-4.63,6.97-3.08,13.09-7.25,18.35-12.52,5.25-5.26,9.37-11.37,12.35-18.35,2.97-6.97,4.46-14.46,4.46-22.46s-1.49-15.49-4.46-22.46c-2.97-6.97-7.09-13.09-12.35-18.35-5.26-5.26-11.38-9.37-18.35-12.35-6.98-2.97-14.46-4.46-22.46-4.46s-15.49,1.49-22.46,4.46c-6.98,2.97-13.09,7.09-18.35,12.35-5.26,5.26-9.43,11.37-12.52,18.35-3.09,6.98-4.63,14.46-4.63,22.46s1.54,15.49,4.63,22.46c3.09,6.98,7.25,13.09,12.52,18.35,5.25,5.26,11.37,9.43,18.35,12.52,6.97,3.09,14.46,4.63,22.46,4.63Z" style="fill: #efeceb; stroke-width: 0px;"/>
      <path d="M322.04,31.21c-4.35,0-8.06-1.48-11.15-4.46-3.09-2.97-4.63-6.63-4.63-10.98s1.54-8.06,4.63-11.15c3.08-3.09,6.8-4.63,11.15-4.63,4.11,0,7.72,1.54,10.8,4.63,3.09,3.09,4.63,6.81,4.63,11.15s-1.54,8.01-4.63,10.98c-3.08,2.97-6.69,4.46-10.8,4.46ZM306.95,215.38V40.13h29.84v175.25h-29.84Z" style="fill: #efeceb; stroke-width: 0px;"/>
      <path d="M384.8,69.62c6.17-8.69,14.29-15.78,24.35-21.26,10.06-5.49,21.15-8.23,33.27-8.23v29.84c-8,0-15.49,1.49-22.46,4.46-6.98,2.97-13.09,7.09-18.35,12.35-5.26,5.26-9.38,11.37-12.35,18.35-2.97,6.98-4.46,14.46-4.46,22.46v87.8h-29.84V40.13h29.84v29.49Z" style="fill: #efeceb; stroke-width: 0px;"/>
      <path d="M606.01,215.38h-29.84v-29.5c-6.17,8.69-14.29,15.78-24.35,21.26-10.06,5.49-21.15,8.23-33.27,8.23s-23.49-2.28-34.13-6.86c-10.63-4.57-19.95-10.86-27.95-18.86-8.01-8-14.29-17.32-18.86-27.95-4.58-10.63-6.86-22-6.86-34.13s2.28-23.49,6.86-34.13c4.57-10.63,10.85-19.89,18.86-27.78,8-7.89,17.32-14.11,27.95-18.69,10.63-4.57,22-6.86,34.13-6.86s23.09,2.23,33.61,6.69c10.52,4.46,19.72,10.52,27.61,18.17,7.89,7.66,14.17,16.69,18.86,27.1,4.68,10.41,7.14,21.55,7.37,33.44v89.86ZM518.55,185.54c8,0,15.49-1.54,22.46-4.63,6.97-3.08,13.09-7.25,18.35-12.52,5.25-5.26,9.37-11.37,12.35-18.35,2.97-6.97,4.46-14.46,4.46-22.46s-1.49-15.49-4.46-22.46c-2.97-6.97-7.09-13.09-12.35-18.35-5.26-5.26-11.38-9.37-18.35-12.35-6.98-2.97-14.46-4.46-22.46-4.46s-15.49,1.49-22.46,4.46c-6.98,2.97-13.09,7.09-18.35,12.35-5.26,5.26-9.43,11.37-12.52,18.35-3.09,6.98-4.63,14.46-4.63,22.46s1.54,15.49,4.63,22.46c3.09,6.98,7.25,13.09,12.52,18.35,5.25,5.26,11.37,9.43,18.35,12.52,6.97,3.09,14.46,4.63,22.46,4.63Z" style="fill: #efeceb; stroke-width: 0px;"/>
      <path d="M729.6,223.1V16.63h75.11c6.4,0,12.4,1.2,18.01,3.6,5.6,2.4,10.46,5.66,14.58,9.77,4.12,4.12,7.37,8.98,9.78,14.58,2.4,5.61,3.6,11.61,3.6,18.01,0,5.95-1.09,11.44-3.26,16.46-2.17,5.03-5.2,9.38-9.09,13.03,10.97,5.26,19.94,13.15,26.92,23.66,6.97,10.52,10.46,22.52,10.46,36.01,0,9.83-1.89,19.09-5.66,27.78-3.77,8.69-8.87,16.24-15.26,22.63-6.4,6.4-13.89,11.49-22.46,15.26-8.57,3.77-17.78,5.66-27.61,5.66h-75.11ZM757.73,80.42h46.98c4.8,0,8.97-1.71,12.52-5.14,3.54-3.43,5.32-7.66,5.32-12.69s-1.77-9.26-5.32-12.69c-3.55-3.43-7.72-5.14-12.52-5.14h-46.98v35.67ZM757.73,194.97h46.98c5.94,0,11.54-1.14,16.81-3.43,5.26-2.28,9.83-5.37,13.72-9.26,3.89-3.89,6.97-8.46,9.26-13.72,2.28-5.26,3.43-10.86,3.43-16.81s-1.15-11.54-3.43-16.8c-2.29-5.26-5.38-9.83-9.26-13.72-3.89-3.89-8.46-6.97-13.72-9.26-5.26-2.28-10.86-3.43-16.81-3.43h-46.98v86.43Z" style="fill: #efeceb; stroke-width: 0px;"/>
      <path d="M1061.59,223.1h-29.84v-29.5c-6.17,8.69-14.29,15.78-24.35,21.26-10.06,5.49-21.15,8.23-33.27,8.23s-23.49-2.28-34.13-6.86c-10.63-4.57-19.95-10.86-27.95-18.86-8.01-8-14.29-17.32-18.86-27.95-4.58-10.63-6.86-22-6.86-34.13s2.28-23.49,6.86-34.13c4.57-10.63,10.85-19.89,18.86-27.78,8-7.89,17.32-14.11,27.95-18.69,10.63-4.57,22-6.86,34.13-6.86s23.09,2.23,33.61,6.69c10.52,4.46,19.72,10.52,27.61,18.17,7.89,7.66,14.17,16.69,18.86,27.1,4.68,10.41,7.14,21.55,7.37,33.44v89.86ZM974.13,193.26c8,0,15.49-1.54,22.46-4.63,6.97-3.08,13.09-7.25,18.35-12.52,5.25-5.26,9.37-11.37,12.35-18.35,2.97-6.97,4.46-14.46,4.46-22.46s-1.49-15.49-4.46-22.46c-2.97-6.97-7.09-13.09-12.35-18.35-5.26-5.26-11.38-9.37-18.35-12.35-6.98-2.97-14.46-4.46-22.46-4.46s-15.49,1.49-22.46,4.46c-6.98,2.97-13.09,7.09-18.35,12.35-5.26,5.26-9.43,11.37-12.52,18.35-3.09,6.98-4.63,14.46-4.63,22.46s1.54,15.49,4.63,22.46c3.09,6.98,7.25,13.09,12.52,18.35,5.25,5.26,11.37,9.43,18.35,12.52,6.97,3.09,14.46,4.63,22.46,4.63Z" style="fill: #efeceb; stroke-width: 0px;"/>
      <path d="M1079.08,223.1V1.2h29.84v221.9h-29.84Z" style="fill: #efeceb; stroke-width: 0px;"/>
      <path d="M1298.23,223.1h-29.84v-29.5c-6.17,8.69-14.29,15.78-24.35,21.26-10.06,5.49-21.15,8.23-33.26,8.23s-23.49-2.28-34.13-6.86c-10.63-4.57-19.95-10.86-27.95-18.86-8-8-14.29-17.32-18.86-27.95-4.58-10.63-6.86-22-6.86-34.13s2.28-23.49,6.86-34.13c4.57-10.63,10.86-19.89,18.86-27.78,8-7.89,17.32-14.11,27.95-18.69,10.63-4.57,22-6.86,34.13-6.86s23.09,2.23,33.61,6.69c10.51,4.46,19.72,10.52,27.61,18.17,7.89,7.66,14.17,16.69,18.86,27.1,4.68,10.41,7.14,21.55,7.37,33.44v89.86ZM1210.77,193.26c8,0,15.49-1.54,22.46-4.63,6.97-3.08,13.09-7.25,18.35-12.52,5.26-5.26,9.37-11.37,12.35-18.35,2.97-6.97,4.46-14.46,4.46-22.46s-1.49-15.49-4.46-22.46c-2.97-6.97-7.09-13.09-12.35-18.35-5.26-5.26-11.38-9.37-18.35-12.35-6.98-2.97-14.47-4.46-22.46-4.46s-15.49,1.49-22.47,4.46c-6.98,2.97-13.09,7.09-18.35,12.35-5.26,5.26-9.43,11.37-12.52,18.35-3.08,6.98-4.63,14.46-4.63,22.46s1.54,15.49,4.63,22.46c3.09,6.98,7.26,13.09,12.52,18.35,5.26,5.26,11.37,9.43,18.35,12.52,6.97,3.09,14.46,4.63,22.47,4.63Z" style="fill: #efeceb; stroke-width: 0px;"/>
      <path d="M1403.51,47.84c12.12,0,23.5,2.29,34.13,6.86,10.63,4.58,19.94,10.8,27.95,18.69,8,7.89,14.28,17.15,18.86,27.78,4.57,10.63,6.86,22.01,6.86,34.13v87.8h-29.84v-87.8c0-8-1.54-15.49-4.63-22.46-3.09-6.97-7.26-13.09-12.52-18.35-5.26-5.26-11.37-9.37-18.35-12.35-6.98-2.97-14.46-4.46-22.47-4.46s-15.49,1.49-22.46,4.46c-6.98,2.97-13.1,7.09-18.35,12.35-5.26,5.26-9.38,11.37-12.35,18.35-2.97,6.98-4.45,14.46-4.45,22.46v87.8h-29.84v-87.8c0-12.11,2.28-23.49,6.86-34.13,4.57-10.63,10.8-19.89,18.69-27.78,7.88-7.89,17.15-14.11,27.78-18.69,10.63-4.57,22-6.86,34.12-6.86Z" style="fill: #efeceb; stroke-width: 0px;"/>
      <path d="M1679.6,149.02c-1.6,10.52-4.97,20.29-10.12,29.32-5.14,9.04-11.55,16.87-19.21,23.49-7.66,6.63-16.41,11.83-26.23,15.6-9.83,3.77-20.24,5.66-31.21,5.66-12.12,0-23.49-2.28-34.12-6.86-10.63-4.57-19.89-10.86-27.78-18.86-7.89-8-14.12-17.32-18.69-27.95-4.58-10.63-6.86-22-6.86-34.13s2.28-23.49,6.86-34.13c4.57-10.63,10.8-19.89,18.69-27.78,7.89-7.89,17.15-14.11,27.78-18.69,10.63-4.57,22-6.86,34.12-6.86,10.98,0,21.38,1.89,31.21,5.66,9.83,3.77,18.57,8.98,26.23,15.61,7.66,6.63,14.06,14.46,19.21,23.49,5.14,9.04,8.51,18.81,10.12,29.33h-30.87c-1.37-6.4-3.83-12.29-7.37-17.66-3.55-5.37-7.78-10.06-12.69-14.06-4.92-4-10.41-7.09-16.46-9.26-6.06-2.17-12.52-3.26-19.38-3.26-8,0-15.49,1.49-22.46,4.46-6.98,2.97-13.09,7.09-18.35,12.35-5.26,5.26-9.38,11.37-12.35,18.35-2.97,6.98-4.46,14.46-4.46,22.46s1.48,15.49,4.46,22.46c2.97,6.98,7.09,13.09,12.35,18.35,5.25,5.26,11.37,9.43,18.35,12.52,6.97,3.09,14.46,4.63,22.46,4.63,6.86,0,13.32-1.14,19.38-3.43,6.06-2.28,11.54-5.37,16.46-9.26,4.91-3.89,9.14-8.51,12.69-13.89,3.54-5.37,6-11.26,7.37-17.66h30.87Z" style="fill: #efeceb; stroke-width: 0px;"/>
      <path d="M1777.68,47.84c11.2,0,22,2.18,32.41,6.52,10.4,4.35,19.6,10.35,27.61,18.01,8,7.66,14.52,16.63,19.55,26.92,5.03,10.29,7.66,21.26,7.89,32.93v9.94h-143.01c.68,7.32,2.63,14.12,5.83,20.41,3.2,6.29,7.31,11.72,12.35,16.29,5.03,4.58,10.74,8.12,17.15,10.63,6.4,2.52,13.15,3.77,20.23,3.77,11.43,0,21.61-3.09,30.52-9.26,8.92-6.17,15.43-14.06,19.55-23.67h33.95c-2.74,9.15-6.75,17.55-12,25.21-5.26,7.66-11.61,14.29-19.03,19.89-7.43,5.61-15.6,9.95-24.52,13.03-8.92,3.09-18.41,4.63-28.47,4.63-12.12,0-23.49-2.28-34.12-6.86-10.63-4.57-19.95-10.86-27.95-18.86-8-8-14.29-17.32-18.86-27.95-4.58-10.63-6.86-22-6.86-34.13s2.28-23.49,6.86-34.13c4.57-10.63,10.86-19.89,18.86-27.78,8-7.89,17.32-14.11,27.95-18.69,10.63-4.57,22-6.86,34.12-6.86ZM1777.68,77.68c-6.86,0-13.37,1.15-19.55,3.43-6.18,2.29-11.72,5.43-16.64,9.43-4.92,4-9.09,8.74-12.52,14.23-3.43,5.49-5.83,11.55-7.2,18.18h111.81c-1.37-6.63-3.77-12.69-7.2-18.18-3.43-5.49-7.6-10.23-12.52-14.23-4.92-4-10.46-7.14-16.64-9.43-6.17-2.28-12.69-3.43-19.55-3.43Z" style="fill: #efeceb; stroke-width: 0px;"/>
    </g>
  </g>
</svg>