<?xml version="1.0" encoding="UTF-8"?>
<svg id="Capa_2" data-name="Capa 2" xmlns="http://www.w3.org/2000/svg" viewBox="0 0 26.36 15.67">
  <g id="Capa_1-2" data-name="Capa 1">
    <g>
      <path d="M7.56,5.89c-1.18-.86-2.37-1.73-3.55-2.59C3.14,2.66,1.05,1.13.27.57.16.48,0,.56,0,.7,0,2.67,0,12.87,0,14.9c0,.14.16.22.27.13.71-.58,2.46-2,3.18-2.59.99-.81,1.98-1.62,2.97-2.43.82-.67,1.64-1.34,2.46-2.01.19-.16.39-.32.58-.48.08-.07.08-.2,0-.26-.63-.46-1.26-.92-1.9-1.38Z" style="fill: #efeceb; stroke-width: 0px;"/>
      <path d="M22.45,12.98c-.99-.81-1.98-1.62-2.97-2.43-.82-.67-1.64-1.34-2.46-2.01-.26-.21-.52-.42-.78-.64-.06-.05-.14-.05-.2,0-.2.14-.39.29-.59.43-.18.13-.35.26-.53.38-.74.53-1.77.66-2.63.4-.7-.21-1.26-.7-1.84-1.12-.03-.02-.05-.04-.08-.06-.06-.05-.15-.04-.21,0-.32.27-.66.53-.98.79-.86.7-1.71,1.4-2.57,2.1-.99.81-1.98,1.62-2.97,2.43-.63.52-1.94,1.59-2.59,2.11-.12.1-.05.3.11.3,3.13,0,20.98,0,24.11,0,.16,0,.23-.2.11-.3-.72-.59-2.25-1.84-2.93-2.39Z" style="fill: #efeceb; stroke-width: 0px;"/>
      <path d="M26.35.7c0-.14-.16-.22-.27-.13-.44.32-.88.64-1.33.97-1.09.8-2.18,1.59-3.27,2.39-1.06.78-3.77,2.75-4.55,3.32-.09.06-.09.2,0,.26.65.53,2.65,2.17,3.42,2.79.99.81,1.98,1.62,2.97,2.43.67.55,2.14,1.75,2.76,2.26.11.09.27.01.27-.13,0-2.03,0-12.19,0-14.15Z" style="fill: #efeceb; stroke-width: 0px;"/>
      <path d="M1.27,0c-.16,0-.23.21-.1.3.95.7,3.14,2.29,4.04,2.94,1.16.85,2.32,1.7,3.49,2.54.85.62,1.71,1.25,2.56,1.87.18.13.36.27.55.4.63.45,1.42.55,2.14.31.28-.09.54-.26.79-.45.28-.2.55-.4.83-.61.96-.7,1.92-1.4,2.88-2.1,1.19-.86,2.37-1.73,3.56-2.59.78-.57,2.4-1.75,3.17-2.31.13-.1.06-.3-.1-.3H1.27Z" style="fill: #efeceb; stroke-width: 0px;"/>
    </g>
  </g>
</svg>