<?xml version="1.0" encoding="UTF-8"?>
<svg id="Capa_2" data-name="Capa 2" xmlns="http://www.w3.org/2000/svg" viewBox="0 0 24.56 24.56">
  <g id="Capa_1-2" data-name="Capa 1">
    <g>
      <path d="M12.28,0c3.39,0,6.46,1.37,8.68,3.6,2.22,2.22,3.6,5.29,3.6,8.68s-1.37,6.46-3.6,8.68c-2.22,2.22-5.29,3.6-8.68,3.6s-6.46-1.37-8.68-3.6C1.37,18.74,0,15.67,0,12.28S1.37,5.82,3.6,3.6C5.82,1.37,8.89,0,12.28,0h0ZM19.61,4.95c-1.88-1.88-4.47-3.04-7.33-3.04s-5.45,1.16-7.33,3.04c-1.88,1.88-3.04,4.47-3.04,7.33s1.16,5.45,3.04,7.33c1.88,1.88,4.47,3.04,7.33,3.04s5.45-1.16,7.33-3.04c1.88-1.88,3.04-4.47,3.04-7.33s-1.16-5.45-3.04-7.33Z" style="fill: currentColor; fill-rule: evenodd; stroke-width: 0px;"/>
      <path d="M12.28,13.23c.52,0,.95-.43.95-.95s-.43-.95-.95-.95-.95.43-.95.95.43.95.95.95Z" style="fill: currentColor; fill-rule: evenodd; stroke-width: 0px;"/>
      <polygon points="11.71 12.28 12.84 12.28 12.46 4.07 12.1 4.07 11.71 12.28" style="fill: currentColor; fill-rule: evenodd; stroke-width: 0px;"/>
      <polygon points="12.56 11.79 12 12.77 17.72 15.63 17.9 15.31 12.56 11.79" style="fill: currentColor; fill-rule: evenodd; stroke-width: 0px;"/>
    </g>
  </g>
</svg>