<?xml version="1.0" encoding="UTF-8"?>
<svg id="Capa_2" data-name="Capa 2" xmlns="http://www.w3.org/2000/svg" viewBox="0 0 23.5 23.46">
  <g id="Capa_1-2" data-name="Capa 1">
    <g>
      <path d="M5.93.21c2.41-.26,10.31-.35,12.48.14,2.14.48,4.14,2.34,4.64,4.5.59,2.58.62,11.48-.06,13.99-.53,1.97-2.39,3.7-4.35,4.21-2.11.55-10.02.45-12.46.24-2.56-.21-4.97-1.96-5.66-4.47-.69-2.49-.67-11.55-.03-14.06C1.12,2.28,3.41.48,5.93.21ZM6.65,1.91c-2.08.19-3.93,1.38-4.5,3.47-.58,2.11-.56,10.45-.03,12.6s2.55,3.45,4.76,3.62,9.35.29,11.35-.28c1.32-.37,2.63-1.73,3.06-3.03.63-1.93.62-10.91.06-12.92-.63-2.28-2.63-3.37-4.86-3.52-2.71-.18-7.15-.2-9.83.05Z" style="fill: currentColor; stroke-width: 0px;"/>
      <path d="M18.34,11.73c0,3.64-2.95,6.6-6.6,6.6s-6.6-2.95-6.6-6.6,2.95-6.6,6.6-6.6,6.6,2.95,6.6,6.6ZM16.31,11.74c0-2.52-2.04-4.56-4.56-4.56s-4.56,2.04-4.56,4.56,2.04,4.56,4.56,4.56,4.56-2.04,4.56-4.56Z" style="fill: currentColor; stroke-width: 0px;"/>
      <path d="M20.07,5.22c0,.88-.71,1.59-1.59,1.59s-1.59-.71-1.59-1.59.71-1.59,1.59-1.59,1.59.71,1.59,1.59ZM18.92,5.23c0-.22-.18-.4-.4-.4s-.4.18-.4.4.18.4.4.4.4-.18.4-.4Z" style="fill: currentColor; stroke-width: 0px;"/>
    </g>
  </g>
</svg>