<?xml version="1.0" encoding="UTF-8"?>
<svg id="Capa_2" data-name="Capa 2" xmlns="http://www.w3.org/2000/svg" viewBox="0 0 19.87 20.09">
  <g id="Capa_1-2" data-name="Capa 1">
    <path d="M11.96,15.71c.09-.55.26-1.09.53-1.57.2-.35.28-.44.71-.39.86.11,1.76.29,2.62.42,1.13.18,2.38.3,3.49.53.3.06.32.12.4.4.72,2.4-1.15,4.91-3.63,4.98-1.64.05-3.64-.28-5.2-.76C4.36,17.3-.32,10.65.02,3.79.14,1.34,2.43-.46,4.84.11c.48.11.44.18.52.64.37,2.08.66,4.18.99,6.26-.02.17-.26.29-.4.37-.51.29-1.05.44-1.63.54,1.09,3.62,4.04,6.63,7.64,7.8Z" style="fill: #efeceb; stroke-width: 0px;"/>
  </g>
</svg>