<?xml version="1.0" encoding="UTF-8"?>
<svg id="Capa_2" data-name="Capa 2" xmlns="http://www.w3.org/2000/svg" viewBox="0 0 22.21 22.21">
  <g id="Capa_1-2" data-name="Capa 1">
    <g>
      <path d="M11.1,0c3.07,0,5.84,1.24,7.85,3.25,2.01,2.01,3.25,4.79,3.25,7.85s-1.24,5.84-3.25,7.85c-2.01,2.01-4.79,3.25-7.85,3.25s-5.84-1.24-7.85-3.25c-2.01-2.01-3.25-4.79-3.25-7.85S1.24,5.26,3.25,3.25C5.26,1.24,8.04,0,11.1,0h0ZM17.73,4.48c-1.7-1.7-4.04-2.75-6.63-2.75s-4.93,1.05-6.63,2.75c-1.7,1.7-2.75,4.04-2.75,6.63s1.05,4.93,2.75,6.63c1.7,1.7,4.04,2.75,6.63,2.75s4.93-1.05,6.63-2.75c1.7-1.7,2.75-4.04,2.75-6.63s-1.05-4.93-2.75-6.63Z" style="fill-rule: evenodd; stroke-width: 0px;"/>
      <path d="M11.1,11.96c.47,0,.86-.39.86-.86s-.39-.86-.86-.86-.86.39-.86.86.39.86.86.86Z" style="fill-rule: evenodd; stroke-width: 0px;"/>
      <polygon points="10.59 11.1 11.61 11.1 11.27 3.68 10.94 3.68 10.59 11.1" style="fill-rule: evenodd; stroke-width: 0px;"/>
      <polygon points="11.36 10.66 10.85 11.54 16.02 14.13 16.19 13.85 11.36 10.66" style="fill-rule: evenodd; stroke-width: 0px;"/>
    </g>
  </g>
</svg>