<?xml version="1.0" encoding="UTF-8"?>
<svg id="Capa_2" data-name="Capa 2" xmlns="http://www.w3.org/2000/svg" viewBox="0 0 1001.1 427.24 "  width="1200" height="600">
  <g id="Capa_1-2" data-name="Capa 1">
    <g style="opacity: .6;">
      <path d="M109.55,188.49H45.32c-6.2,0-12.06-1.2-17.56-3.6-5.5-2.4-10.31-5.65-14.41-9.75-4.1-4.1-7.35-8.95-9.75-14.56-2.4-5.6-3.6-11.5-3.6-17.71V7.8h24.61v135.06c0,5.81,2,10.76,6,14.86,4,4.1,8.9,6.15,14.71,6.15h64.23v24.61Z" style="fill: #fff; stroke-width: 0px;"/>
      <path d="M252.72,188.49h-26.11v-25.81c-5.4,7.61-12.51,13.81-21.31,18.61-8.81,4.8-18.51,7.2-29.11,7.2s-20.56-2-29.86-6c-9.3-4-17.46-9.5-24.46-16.51-7.01-7-12.51-15.16-16.51-24.46-4.01-9.3-6-19.26-6-29.86s2-20.56,6-29.86c4-9.3,9.5-17.41,16.51-24.31,7-6.9,15.16-12.35,24.46-16.36,9.31-4,19.26-6,29.86-6s20.21,1.95,29.41,5.85c9.2,3.9,17.26,9.2,24.16,15.91,6.9,6.71,12.4,14.61,16.51,23.71,4.1,9.11,6.25,18.86,6.45,29.26v78.64ZM176.18,162.37c7,0,13.55-1.35,19.66-4.05,6.1-2.7,11.45-6.35,16.06-10.95,4.6-4.6,8.2-9.95,10.8-16.06,2.6-6.1,3.9-12.65,3.9-19.66s-1.3-13.55-3.9-19.66c-2.6-6.1-6.2-11.45-10.8-16.06-4.6-4.6-9.96-8.2-16.06-10.81-6.11-2.6-12.66-3.9-19.66-3.9s-13.56,1.3-19.66,3.9c-6.11,2.6-11.46,6.2-16.06,10.81-4.61,4.6-8.25,9.95-10.96,16.06-2.7,6.11-4.05,12.66-4.05,19.66s1.35,13.56,4.05,19.66c2.7,6.11,6.35,11.46,10.96,16.06,4.6,4.6,9.95,8.25,16.06,10.95,6.1,2.7,12.65,4.05,19.66,4.05Z" style="fill: #fff; stroke-width: 0px;"/>
      <path d="M281.83,27.31c-3.8,0-7.05-1.3-9.75-3.9-2.7-2.6-4.05-5.8-4.05-9.6s1.35-7.05,4.05-9.75c2.7-2.7,5.95-4.05,9.75-4.05,3.6,0,6.75,1.35,9.45,4.05,2.7,2.7,4.05,5.96,4.05,9.75s-1.35,7.01-4.05,9.6c-2.7,2.6-5.85,3.9-9.45,3.9ZM268.62,188.49V35.12h26.11v153.37h-26.11Z" style="fill: #fff; stroke-width: 0px;"/>
      <path d="M336.75,60.93c5.4-7.6,12.5-13.81,21.31-18.61,8.8-4.8,18.51-7.2,29.11-7.2v26.11c-7.01,0-13.56,1.3-19.66,3.9-6.11,2.6-11.46,6.2-16.06,10.81-4.61,4.6-8.21,9.95-10.81,16.06-2.6,6.11-3.9,12.66-3.9,19.66v76.84h-26.11V35.12h26.11v25.81Z" style="fill: #fff; stroke-width: 0px;"/>
      <path d="M530.34,188.49h-26.11v-25.81c-5.4,7.61-12.51,13.81-21.31,18.61-8.81,4.8-18.51,7.2-29.11,7.2s-20.56-2-29.86-6c-9.3-4-17.46-9.5-24.46-16.51-7.01-7-12.51-15.16-16.51-24.46-4.01-9.3-6-19.26-6-29.86s2-20.56,6-29.86c4-9.3,9.5-17.41,16.51-24.31,7-6.9,15.16-12.35,24.46-16.36,9.31-4,19.26-6,29.86-6s20.21,1.95,29.41,5.85c9.2,3.9,17.26,9.2,24.16,15.91,6.9,6.71,12.4,14.61,16.51,23.71,4.1,9.11,6.25,18.86,6.45,29.26v78.64ZM453.81,162.37c7,0,13.55-1.35,19.66-4.05,6.1-2.7,11.45-6.35,16.06-10.95,4.6-4.6,8.2-9.95,10.8-16.06,2.6-6.1,3.9-12.65,3.9-19.66s-1.3-13.55-3.9-19.66c-2.6-6.1-6.2-11.45-10.8-16.06-4.6-4.6-9.96-8.2-16.06-10.81-6.11-2.6-12.66-3.9-19.66-3.9s-13.56,1.3-19.66,3.9c-6.11,2.6-11.46,6.2-16.06,10.81-4.61,4.6-8.25,9.95-10.96,16.06-2.7,6.11-4.05,12.66-4.05,19.66s1.35,13.56,4.05,19.66c2.7,6.11,6.35,11.46,10.96,16.06,4.6,4.6,9.95,8.25,16.06,10.95,6.1,2.7,12.65,4.05,19.66,4.05Z" style="fill: #fff; stroke-width: 0px;"/>
      <path d="M7.35,427.24v-180.68h65.73c5.6,0,10.85,1.05,15.76,3.15,4.9,2.1,9.16,4.95,12.76,8.55,3.6,3.6,6.45,7.86,8.56,12.76,2.1,4.91,3.15,10.16,3.15,15.76,0,5.21-.95,10.01-2.85,14.41-1.9,4.4-4.55,8.21-7.95,11.4,9.6,4.6,17.45,11.51,23.56,20.71,6.1,9.21,9.15,19.71,9.15,31.51,0,8.61-1.65,16.71-4.95,24.31-3.3,7.61-7.76,14.21-13.36,19.81-5.6,5.6-12.15,10.06-19.66,13.36-7.5,3.3-15.56,4.95-24.16,4.95H7.35ZM31.97,302.38h41.12c4.2,0,7.85-1.5,10.96-4.5,3.1-3,4.65-6.7,4.65-11.1s-1.55-8.1-4.65-11.1c-3.1-3-6.75-4.5-10.96-4.5H31.97v31.21ZM31.97,402.63h41.12c5.2,0,10.1-1,14.71-3,4.6-2,8.6-4.7,12.01-8.1,3.4-3.4,6.1-7.4,8.1-12.01,2-4.6,3-9.5,3-14.71s-1.01-10.1-3-14.7c-2-4.6-4.7-8.6-8.1-12.01-3.41-3.4-7.4-6.1-12.01-8.1-4.6-2-9.51-3-14.71-3H31.97v75.64Z" style="fill: #fff; stroke-width: 0px;"/>
      <path d="M297.89,427.24h-26.11v-25.81c-5.4,7.61-12.51,13.81-21.31,18.61-8.81,4.8-18.51,7.2-29.11,7.2s-20.56-2-29.86-6c-9.3-4-17.46-9.5-24.46-16.51-7.01-7-12.51-15.16-16.51-24.46-4.01-9.3-6-19.26-6-29.86s2-20.56,6-29.86c4-9.3,9.5-17.41,16.51-24.31,7-6.9,15.16-12.35,24.46-16.36,9.31-4,19.26-6,29.86-6s20.21,1.95,29.41,5.85c9.2,3.9,17.26,9.2,24.16,15.91,6.9,6.71,12.4,14.61,16.51,23.71,4.1,9.11,6.25,18.86,6.45,29.26v78.64ZM221.35,401.12c7,0,13.55-1.35,19.66-4.05,6.1-2.7,11.45-6.35,16.06-10.95,4.6-4.6,8.2-9.95,10.8-16.06,2.6-6.1,3.9-12.65,3.9-19.66s-1.3-13.55-3.9-19.66c-2.6-6.1-6.2-11.45-10.8-16.06-4.6-4.6-9.96-8.2-16.06-10.81-6.11-2.6-12.66-3.9-19.66-3.9s-13.56,1.3-19.66,3.9c-6.11,2.6-11.46,6.2-16.06,10.81-4.61,4.6-8.25,9.95-10.96,16.06-2.7,6.11-4.05,12.66-4.05,19.66s1.35,13.56,4.05,19.66c2.7,6.11,6.35,11.46,10.96,16.06,4.6,4.6,9.95,8.25,16.06,10.95,6.1,2.7,12.65,4.05,19.66,4.05Z" style="fill: #fff; stroke-width: 0px;"/>
      <path d="M313.19,427.24v-194.19h26.11v194.19h-26.11Z" style="fill: #fff; stroke-width: 0px;"/>
      <path d="M504.98,427.24h-26.11v-25.81c-5.4,7.61-12.51,13.81-21.31,18.61-8.8,4.8-18.51,7.2-29.11,7.2s-20.56-2-29.86-6c-9.31-4-17.46-9.5-24.46-16.51-7.01-7-12.51-15.16-16.51-24.46-4-9.3-6-19.26-6-29.86s2-20.56,6-29.86c4-9.3,9.5-17.41,16.51-24.31,7-6.9,15.16-12.35,24.46-16.36,9.3-4,19.25-6,29.86-6s20.21,1.95,29.41,5.85c9.2,3.9,17.26,9.2,24.16,15.91,6.9,6.71,12.4,14.61,16.51,23.71,4.1,9.11,6.25,18.86,6.45,29.26v78.64ZM428.44,401.12c7,0,13.55-1.35,19.66-4.05,6.1-2.7,11.45-6.35,16.06-10.95,4.6-4.6,8.2-9.95,10.81-16.06,2.6-6.1,3.9-12.65,3.9-19.66s-1.3-13.55-3.9-19.66c-2.6-6.1-6.2-11.45-10.81-16.06-4.6-4.6-9.96-8.2-16.06-10.81-6.11-2.6-12.66-3.9-19.66-3.9s-13.56,1.3-19.66,3.9c-6.11,2.6-11.45,6.2-16.06,10.81-4.6,4.6-8.25,9.95-10.96,16.06-2.7,6.11-4.05,12.66-4.05,19.66s1.35,13.56,4.05,19.66c2.7,6.11,6.35,11.46,10.96,16.06,4.6,4.6,9.95,8.25,16.06,10.95,6.1,2.7,12.65,4.05,19.66,4.05Z" style="fill: #fff; stroke-width: 0px;"/>
      <path d="M597.11,273.87c10.6,0,20.56,2,29.87,6,9.3,4.01,17.45,9.45,24.46,16.36,7,6.9,12.5,15.01,16.51,24.31,4,9.31,6,19.26,6,29.86v76.84h-26.12v-76.84c0-7-1.35-13.55-4.05-19.66-2.7-6.1-6.35-11.45-10.96-16.06-4.6-4.6-9.95-8.2-16.06-10.81-6.11-2.6-12.66-3.9-19.66-3.9s-13.55,1.3-19.66,3.9c-6.11,2.6-11.46,6.2-16.06,10.81-4.61,4.6-8.21,9.95-10.81,16.06-2.6,6.11-3.9,12.66-3.9,19.66v76.84h-26.11v-76.84c0-10.6,2-20.56,6-29.86,4-9.3,9.45-17.41,16.36-24.31,6.9-6.9,15.01-12.35,24.31-16.36,9.3-4,19.26-6,29.86-6Z" style="fill: #fff; stroke-width: 0px;"/>
      <path d="M838.73,362.41c-1.4,9.21-4.35,17.76-8.85,25.66-4.5,7.91-10.11,14.76-16.81,20.56-6.71,5.81-14.36,10.36-22.96,13.66-8.61,3.3-17.71,4.95-27.31,4.95-10.61,0-20.56-2-29.86-6-9.31-4-17.41-9.5-24.31-16.51-6.9-7-12.36-15.16-16.36-24.46-4-9.3-6-19.26-6-29.86s2-20.56,6-29.86c4-9.3,9.46-17.41,16.36-24.31,6.9-6.9,15.01-12.35,24.31-16.36,9.3-4,19.25-6,29.86-6,9.6,0,18.71,1.65,27.31,4.95,8.6,3.3,16.25,7.86,22.96,13.66,6.7,5.8,12.31,12.65,16.81,20.56,4.5,7.91,7.45,16.46,8.85,25.66h-27.01c-1.2-5.6-3.35-10.75-6.45-15.46-3.1-4.7-6.81-8.8-11.11-12.3-4.31-3.5-9.11-6.2-14.41-8.1-5.31-1.9-10.96-2.85-16.96-2.85-7.01,0-13.56,1.3-19.66,3.9-6.11,2.6-11.46,6.2-16.06,10.81-4.6,4.6-8.21,9.95-10.81,16.06-2.6,6.11-3.9,12.66-3.9,19.66s1.3,13.56,3.9,19.66c2.6,6.11,6.2,11.46,10.81,16.06,4.6,4.6,9.95,8.25,16.06,10.95,6.1,2.7,12.65,4.05,19.66,4.05,6,0,11.65-1,16.96-3,5.3-2,10.1-4.7,14.41-8.1,4.3-3.4,8-7.45,11.11-12.15,3.1-4.7,5.25-9.85,6.45-15.46h27.01Z" style="fill: #fff; stroke-width: 0px;"/>
      <path d="M924.57,273.87c9.8,0,19.26,1.9,28.36,5.7,9.1,3.8,17.16,9.06,24.16,15.76,7,6.71,12.71,14.56,17.11,23.56,4.4,9,6.7,18.61,6.9,28.81v8.7h-125.15c.6,6.41,2.3,12.36,5.1,17.86,2.8,5.5,6.4,10.26,10.81,14.26,4.4,4,9.4,7.1,15.01,9.3,5.6,2.2,11.5,3.3,17.71,3.3,10,0,18.91-2.7,26.71-8.1,7.8-5.4,13.51-12.3,17.11-20.71h29.71c-2.4,8.01-5.9,15.36-10.5,22.06-4.6,6.71-10.16,12.51-16.66,17.41-6.5,4.91-13.66,8.71-21.46,11.4-7.81,2.7-16.11,4.05-24.91,4.05-10.61,0-20.56-2-29.86-6-9.31-4-17.46-9.5-24.46-16.51-7.01-7-12.51-15.16-16.51-24.46-4-9.3-6-19.26-6-29.86s2-20.56,6-29.86c4-9.3,9.5-17.41,16.51-24.31,7-6.9,15.16-12.35,24.46-16.36,9.3-4,19.25-6,29.86-6ZM924.57,299.98c-6,0-11.7,1-17.11,3-5.4,2-10.26,4.75-14.56,8.25-4.31,3.5-7.95,7.65-10.95,12.46-3,4.8-5.1,10.11-6.3,15.91h97.85c-1.2-5.8-3.3-11.11-6.3-15.91-3-4.8-6.65-8.95-10.95-12.46-4.31-3.5-9.16-6.25-14.56-8.25-5.4-2-11.11-3-17.11-3Z" style="fill: #fff; stroke-width: 0px;"/>
    </g>
  </g>
</svg>